# xmcd
#
# Track frame offsets:
#	150
#	9422
#	20776
#	33460
#	42049
#	56196
#	66318
#	83020
#	95865
#	105693
#	115514
#	126644
#	150591
#	159551
#	168945
#	182665
#	191422
#	199535
#	210329
#	217406
#	228641
#	235942
#	246323
#	263676
#	273707
#	285866
#	295379
#
# Disc length: 4110 seconds
#
# Revision: 0
# Processed by: cddbd v1.5.2PL0 Copyright (c) Steve Scherf et al.
# Submitted via: EasyCDDAExtractor 15.2.5.1
#
DISCID=8d100c1b
DTITLE=Various Artist - SOUND GALLERY 2
DYEAR=1900
DGENRE=
TTITLE0=LAURIE JOHNSON - JASON KING THEME
TTITLE1=KEITH MANSFIELD - POWERHOUSE POP
TTITLE2=THE SCOTTMEN - THE GOOD WORD
TTITLE3=JAMES CLARKE - TWO LANE BLACKTOP
TTITLE4=DAVID LINDUP - ZODIAC
TTITLE5=ALAN MOORHOUSE - THAT'S NICE
TTITLE6=LORD SITAR - I CAN SEE FOR MILES
TTITLE7=PARIS STUDIO GROUP - ACCROCHE TOI, CAROLINE
TTITLE8=FRANCIS LAI - MARSEILLAISE GENERIQUE
TTITLE9=FRANCK POURCEL - FRANCAIS FRANCAIS
TTITLE10=THE NOVELTONES - LEFT BANK 2
TTITLE11=JOHN ANDREWS TARTAGLIA - LIGHT MY FIRE
TTITLE12=LAURIE JOHNSON - AVENGERS TAG
TTITLE13=BRIAN FAHEY - OPEN HOUSE
TTITLE14=E. CAP - MAMA ELEPHANT
TTITLE15=DAVID SNELL - INTERNATIONAL FLIGHT
TTITLE16=SIMON PARK ORCHESTRA - UP TO DATE
TTITLE17=MIKE VICKERS - ON THE BRINK
TTITLE18=JOHNNY PEARSON - SPORTS CAR SPECIAL
TTITLE19=BRIAN FAHEY - COUNTDOWN
TTITLE20=SYD DALE - MISS WORLD
TTITLE21=JACK PARNELL and HIS ORCHESTRA - ENTER THE DRAGON
TTITLE22=STEVE KARMEN BIG BAND - BREAKAWAY
TTITLE23=LAURIE JOHNSON - CAESAR SMITH
TTITLE24=JOHNNY PEARSON and HIS ORCHESTRA - THE RAT CATCHERS
TTITLE25=BRIAN FAHEY - AT THE SIGN OF THE SWINGING CYMBAL
TTITLE26=GEORGE MARTIN - THEME ONE
EXTD=
EXTT0=
EXTT1=
EXTT2=
EXTT3=
EXTT4=
EXTT5=
EXTT6=
EXTT7=
EXTT8=
EXTT9=
EXTT10=
EXTT11=
EXTT12=
EXTT13=
EXTT14=
EXTT15=
EXTT16=
EXTT17=
EXTT18=
EXTT19=
EXTT20=
EXTT21=
EXTT22=
EXTT23=
EXTT24=
EXTT25=
EXTT26=
PLAYORDER=
